<?xml version="1.0" encoding="UTF-8"?>
<svg width="30px" height="36px" viewBox="0 0 30 36" version="1.1" xmlns="http://www.w3.org/2000/svg" xmlns:xlink="http://www.w3.org/1999/xlink">
    <title>keys-icon</title>
    <g id="Page-1" stroke="none" stroke-width="1" fill="none" fill-rule="evenodd">
        <g id="Home" transform="translate(-1047.000000, -1182.000000)" fill-rule="nonzero">
            <g id="keys-icon" transform="translate(1047.000000, 1182.000000)">
                <path d="M29.360259,29.0325794 L25.5857941,18.5222347 C27.4365418,15.9918046 27.9232786,12.670188 26.8443134,9.70631343 C25.9812507,7.3349405 24.2471995,5.44210549 21.9608211,4.37625848 C21.4462083,4.13603302 20.9141047,3.96030489 20.3768085,3.81737206 C19.9668673,3.70805442 19.5525534,3.002409 19.1355066,2.95512914 C18.7184598,2.907576 18.2989534,3.518115 17.8780804,3.5224877 C16.8207056,3.53369274 15.7616909,3.68892379 14.7384778,4.06142368 C14.5990978,4.11170979 14.460811,4.16500216 14.3255304,4.22130078 L18.5241477,14.0363852 L14.3266236,21.6509056 C14.7797452,21.8405717 15.247898,21.994163 15.7245229,22.1122261 L16.6274866,24.6623333 C16.722593,24.9236025 16.9174517,25.1367719 17.1694288,25.2545616 L18.9086725,26.1353886 L18.0980823,27.8743589 C17.8529374,28.4001768 18.0805914,29.0243805 18.6053161,29.269252 L20.3445597,30.0798424 L19.5336962,31.8190861 C19.2888247,32.3449039 19.5164786,32.9691076 20.0412033,33.2139792 L25.4215444,35.722819 C25.5650238,35.7895028 25.7156088,35.8212049 25.8642808,35.8212049 C26.2597374,35.8212049 26.6379764,35.5965571 26.8164375,35.2155852 L29.3252774,29.8349708 C29.4433404,29.5829937 29.4556386,29.2938485 29.360259,29.0325794 L29.360259,29.0325794 Z" id="Path" fill="#639CF9" opacity="0.5"></path>
                <path d="M14.7316454,4.07180889 C9.82000378,2.26697462 4.40495442,4.80642344 2.6208905,9.6970214 C1.55039744,12.6565233 2.01226451,15.9726739 3.88022974,18.512396 C3.7752848,18.8272309 0.10221203,29.0418713 0.10221203,29.0418713 C-0.00273294105,29.2935752 0.0180373759,29.5876397 0.144026011,29.8393436 C0.396003141,30.3851119 2.45308789,34.8138428 2.64166078,35.2125789 C2.76764942,35.4853265 2.97781257,35.6741727 3.22951642,35.758074 C3.48149362,35.8422486 3.7752848,35.8422486 4.04803228,35.71626 C4.61484429,35.4435124 9.42126766,33.2186251 9.44231136,33.2186251 C9.94599234,32.9456044 10.1769259,32.3369784 9.92494872,31.8122537 C9.84104741,31.6444511 9.23242149,30.3012106 9.12747655,30.0702771 C9.31632273,29.9861025 10.8486828,29.2725316 10.8694531,29.2725316 C11.3734075,28.9997841 11.6040677,28.3911581 11.3734075,27.8664334 C11.2684625,27.6983576 10.6595633,26.355117 10.5548916,26.1452272 C10.7437379,26.0402822 12.2968683,25.256748 12.3179119,25.256748 C12.5696158,25.1099891 12.7376916,24.9211428 12.8426366,24.6691656 C12.9054943,24.4382321 13.7240101,22.1223379 13.7450537,22.1223379 C16.7884569,21.3666797 19.2860917,19.121022 20.3776284,16.1615202 C22.1614189,11.2711954 19.6219702,5.83510245 14.7316454,4.07180889 Z M15.1721955,12.047624 C14.5846132,13.6638853 12.7795056,14.5244885 11.1422006,13.9158625 C9.50516897,13.3280069 8.66560948,11.5228994 9.25346512,9.88586764 C9.84104741,8.24883599 11.6669253,7.4092765 13.2831867,7.99685879 L13.3042303,7.99685879 C14.9204917,8.62652841 15.7597778,10.3895487 15.1721955,12.047624 Z" id="Shape" fill="#639CF9"></path>
                <path d="M20.3776284,3.82010496 C19.5591125,3.58917146 18.719553,3.50527016 17.8799935,3.52631385 C17.2921379,2.64466704 16.5575233,2.09889873 15.7810948,2.09889873 C15.6761499,2.09889873 15.5919753,2.09889873 15.4870303,2.11994235 C13.9128563,2.37191955 12.6327467,4.68043488 12.6327467,7.34614554 C12.6327467,7.82878297 12.6745607,8.29064997 12.758462,8.75251697 C12.8423633,9.3190557 12.4646708,9.86482401 11.8981322,9.94872532 C11.8350012,9.96976895 11.7721436,9.96976895 11.7090126,9.96976895 C11.2053316,9.96976895 10.7645082,9.61312016 10.6806069,9.10916583 C10.575662,8.5426271 10.533848,7.93400118 10.533848,7.34614554 C10.533848,3.2322494 12.8423633,0 15.7810948,0 C15.9488974,0 16.1377436,0.0210436286 16.3058195,0.0631309557 C18.0477961,0.273020828 19.5588392,1.70016261 20.3776284,3.82010496 Z" id="Path" fill="#28345E"></path>
            </g>
        </g>
    </g>
</svg>