<?xml version="1.0" encoding="UTF-8"?>
<svg width="37px" height="38px" viewBox="0 0 37 38" version="1.1" xmlns="http://www.w3.org/2000/svg" xmlns:xlink="http://www.w3.org/1999/xlink">
    <title>layer-icon</title>
    <g id="Page-1" stroke="none" stroke-width="1" fill="none" fill-rule="evenodd">
        <g id="Home" transform="translate(-287.000000, -1181.000000)" fill="#80C457" fill-rule="nonzero">
            <g id="Group-3" transform="translate(-16.000000, 873.000000)">
                <g id="Group-2" transform="translate(288.000000, 308.000000)">
                    <g id="layer-icon" transform="translate(15.000000, 0.000000)">
                        <path d="M18.4641896,20.0852235 C18.2117529,20.0844006 17.963211,20.0252583 17.7383982,19.9116618 L0.902821162,11.5016988 C0.0989186281,11.1024883 -0.229249013,10.1273616 0.169889388,9.32345906 C0.327698355,9.00553314 0.584895236,8.74833626 0.902821162,8.59052729 L17.7383982,0.172774854 C18.1975444,-0.0575916179 18.7387685,-0.0575916179 19.1979147,0.172774854 L36.0256301,8.59059942 C36.8295327,8.98980994 37.1577003,9.96493665 36.7585619,10.7688392 C36.6007529,11.0867651 36.3435561,11.343962 36.0256301,11.501771 L19.189981,19.9195234 C18.9643748,20.0299464 18.7158329,20.0867086 18.4641896,20.0852235 Z" id="Shape"></path>
                        <g id="Group" transform="translate(0.000000, 16.805068)">
                            <path d="M18.4642261,11.7017368 C18.2117895,11.7009435 17.9632476,11.6418012 17.7384347,11.5282047 L0.9028577,3.11831384 C0.0989551657,2.71520858 -0.226111111,1.73690838 0.177066277,0.933005848 C0.58017154,0.129103314 1.55847173,-0.195962963 2.36237427,0.207214425 L2.36237427,0.207214425 L18.4642982,8.25424561 L34.5662222,0.199352827 C35.3701248,-0.203752437 36.348425,0.121241715 36.7515302,0.92514425 C37.1546355,1.72904678 36.8296413,2.70734698 36.0257388,3.11045224 L19.1900175,11.5282047 C18.9652047,11.6418012 18.7166628,11.7009435 18.4642261,11.7017368 Z" id="Path" opacity="0.5"></path>
                            <path d="M18.4642261,20.1195614 C18.2117895,20.118768 17.9632476,20.0596257 17.7384347,19.9460292 L0.9028577,11.5282047 C0.0989551657,11.1250994 -0.226111111,10.1467992 0.177066277,9.34289669 C0.580243665,8.53899415 1.55847173,8.21392788 2.36237427,8.61710526 L2.36237427,8.61710526 L18.4642982,16.6483411 L34.5662222,8.60130994 C35.3701248,8.19820468 36.348425,8.52319883 36.7515302,9.32710136 C37.1546355,10.1310039 36.8296413,11.1093041 36.0257388,11.5124094 L19.1901618,19.9459571 C18.9652047,20.0596257 18.7166628,20.118768 18.4642261,20.1195614 Z" id="Path" opacity="0.2"></path>
                        </g>
                    </g>
                </g>
            </g>
        </g>
    </g>
</svg>