<?xml version="1.0" encoding="UTF-8"?>
<svg width="160px" height="34px" viewBox="0 0 160 34" version="1.1" xmlns="http://www.w3.org/2000/svg" xmlns:xlink="http://www.w3.org/1999/xlink">
    <title>logo-white</title>
    <g id="Symbols" stroke="none" stroke-width="1" fill="none" fill-rule="evenodd">
        <g id="main-nav" transform="translate(-50.000000, -46.000000)" fill="#FFFFFF" fill-rule="nonzero">
            <g id="logo-white" transform="translate(50.000000, 46.000000)">
                <path d="M44.7599277,10.3770274 C46.0650314,10.3770274 47.2526578,10.6773197 48.3228429,11.2779132 C49.3930278,11.8785067 50.2326319,12.7228068 50.8416802,13.8108385 C51.4507284,14.8988703 51.7552482,16.1653203 51.7552482,17.6102265 C51.7552482,19.0551327 51.4507284,20.3215827 50.8416802,21.4096145 C50.2326319,22.4976462 49.3930278,23.3419462 48.3228429,23.9425398 C47.2526578,24.5431333 46.0650314,24.8434256 44.7599277,24.8434256 C42.8283745,24.8434256 41.3579797,24.2341369 40.3486997,23.0155413 L40.3486997,24.6345245 L36.4595104,24.6345245 L36.4595104,5.25895151 L40.5314133,5.25895151 L40.5314133,12.0743485 C41.5580948,10.9427954 42.9675854,10.3770274 44.7599277,10.3770274 Z M44.0551753,21.5010087 C45.0992582,21.5010087 45.9562634,21.1484917 46.6262165,20.4434471 C47.2961699,19.7384025 47.6311412,18.7940051 47.6311412,17.6102265 C47.6311412,16.4264479 47.2961699,15.4820505 46.6262165,14.7770059 C45.9562634,14.0719613 45.0992582,13.7194443 44.0551753,13.7194443 C43.0110924,13.7194443 42.1540872,14.0719613 41.4841341,14.7770059 C40.8141809,15.4820505 40.4792093,16.4264479 40.4792093,17.6102265 C40.4792093,18.7940051 40.8141809,19.7384025 41.4841341,20.4434471 C42.1540872,21.1484917 43.0110924,21.5010087 44.0551753,21.5010087 Z M61.1519473,24.8434256 C59.6728298,24.8434256 58.3459941,24.5344292 57.171401,23.9164272 C55.9968078,23.2984251 55.0788987,22.4410689 54.4176461,21.3443329 C53.7563938,20.2475969 53.4257724,19.0029072 53.4257724,17.6102265 C53.4257724,16.2175458 53.7563938,14.9728562 54.4176461,13.8761201 C55.0788987,12.7793841 55.9968078,11.9220279 57.171401,11.3040258 C58.3459941,10.6860238 59.6728298,10.3770274 61.1519473,10.3770274 C62.6310644,10.3770274 63.9535497,10.6860238 65.1194423,11.3040258 C66.2853348,11.9220279 67.1988936,12.7793841 67.8601461,13.8761201 C68.5213987,14.9728562 68.8520199,16.2175458 68.8520199,17.6102265 C68.8520199,19.0029072 68.5213987,20.2475969 67.8601461,21.3443329 C67.1988936,22.4410689 66.2853348,23.2984251 65.1194423,23.9164272 C63.9535497,24.5344292 62.6310644,24.8434256 61.1519473,24.8434256 Z M61.1519473,21.5010087 C62.1960301,21.5010087 63.0530353,21.1484917 63.7229885,20.4434471 C64.3929416,19.7384025 64.7279132,18.7940051 64.7279132,17.6102265 C64.7279132,16.4264479 64.3929416,15.4820505 63.7229885,14.7770059 C63.0530353,14.0719613 62.1960301,13.7194443 61.1519473,13.7194443 C60.1078641,13.7194443 59.2465088,14.0719613 58.5678548,14.7770059 C57.8892011,15.4820505 57.5498793,16.4264479 57.5498793,17.6102265 C57.5498793,18.7940051 57.8892011,19.7384025 58.5678548,20.4434471 C59.2465088,21.1484917 60.1078641,21.5010087 61.1519473,21.5010087 Z M85.8182819,10.5859285 L85.8182819,24.6345245 L81.9290926,24.6345245 L81.9290926,23.0155413 C80.9198126,24.2341369 79.4581183,24.8434256 77.5439666,24.8434256 C76.2214614,24.8434256 75.0251345,24.5474854 73.9549496,23.9555961 C72.8847644,23.3637068 72.0451604,22.5194068 71.4361121,21.4226708 C70.8270638,20.3259348 70.522544,19.0551327 70.522544,17.6102265 C70.522544,16.1653203 70.8270638,14.8945182 71.4361121,13.7977822 C72.0451604,12.7010462 72.8847644,11.8567462 73.9549496,11.2648569 C75.0251345,10.6729676 76.2214614,10.3770274 77.5439666,10.3770274 C79.3363089,10.3770274 80.7370989,10.9427954 81.7463789,12.0743485 L81.7463789,10.5859285 L85.8182819,10.5859285 Z M78.2487189,21.5010087 C79.2754004,21.5010087 80.1280551,21.1484917 80.8067092,20.4434471 C81.4853632,19.7384025 81.8246849,18.7940051 81.8246849,17.6102265 C81.8246849,16.4264479 81.4853632,15.4820505 80.8067092,14.7770059 C80.1280551,14.0719613 79.2754004,13.7194443 78.2487189,13.7194443 C77.2046361,13.7194443 76.3432805,14.0719613 75.6646267,14.7770059 C74.9859727,15.4820505 74.646651,16.4264479 74.646651,17.6102265 C74.646651,18.7940051 74.9859727,19.7384025 75.6646267,20.4434471 C76.3432805,21.1484917 77.2046361,21.5010087 78.2487189,21.5010087 Z M93.4661508,12.4399253 C93.9533894,11.7609935 94.6102819,11.2474502 95.4368473,10.89928 C96.263413,10.5511099 97.2161244,10.3770274 98.2950102,10.3770274 L98.2950102,14.1372464 C97.8425742,14.1024294 97.5380544,14.0850212 97.3814421,14.0850212 C96.2155495,14.0850212 95.3019908,14.4114258 94.6407382,15.0642449 C93.9794856,15.7170639 93.6488645,16.6962778 93.6488645,18.001916 L93.6488645,24.6345245 L89.5769615,24.6345245 L89.5769615,10.5859285 L93.4661508,10.5859285 L93.4661508,12.4399253 Z M115.130762,5.25895151 L115.130762,24.6345245 L111.241573,24.6345245 L111.241573,23.0155413 C110.232293,24.2341369 108.770599,24.8434256 106.856447,24.8434256 C105.533942,24.8434256 104.337615,24.5474854 103.26743,23.9555961 C102.197245,23.3637068 101.357641,22.5194068 100.748593,21.4226708 C100.139544,20.3259348 99.8350246,19.0551327 99.8350246,17.6102265 C99.8350246,16.1653203 100.139544,14.8945182 100.748593,13.7977822 C101.357641,12.7010462 102.197245,11.8567462 103.26743,11.2648569 C104.337615,10.6729676 105.533942,10.3770274 106.856447,10.3770274 C108.648789,10.3770274 110.049579,10.9427954 111.05886,12.0743485 L111.05886,5.25895151 L115.130762,5.25895151 Z M107.561199,21.5010087 C108.587881,21.5010087 109.440536,21.1484917 110.119189,20.4434471 C110.797843,19.7384025 111.137165,18.7940051 111.137165,17.6102265 C111.137165,16.4264479 110.797843,15.4820505 110.119189,14.7770059 C109.440536,14.0719613 108.587881,13.7194443 107.561199,13.7194443 C106.517116,13.7194443 105.655761,14.0719613 104.977107,14.7770059 C104.298453,15.4820505 103.959131,16.4264479 103.959131,17.6102265 C103.959131,18.7940051 104.298453,19.7384025 104.977107,20.4434471 C105.655761,21.1484917 106.517116,21.5010087 107.561199,21.5010087 Z M136.87368,10.3770274 C138.631219,10.3770274 140.027659,10.8949228 141.063042,11.930729 C142.098424,12.9665353 142.616107,14.5202213 142.616107,16.5918338 L142.616107,24.6345245 L138.544204,24.6345245 L138.544204,17.218537 C138.544204,16.1043925 138.313639,15.2731487 137.852503,14.7247807 C137.391366,14.1764126 136.734474,13.9022327 135.881806,13.9022327 C134.92473,13.9022327 134.167781,14.2112291 133.610937,14.8292312 C133.054093,15.4472332 132.775675,16.3655183 132.775675,17.5841139 L132.775675,24.6345245 L128.703772,24.6345245 L128.703772,17.218537 C128.703772,15.0076564 127.816315,13.9022327 126.041374,13.9022327 C125.101699,13.9022327 124.353451,14.2112291 123.796607,14.8292312 C123.239763,15.4472332 122.961345,16.3655183 122.961345,17.5841139 L122.961345,24.6345245 L118.889442,24.6345245 L118.889442,10.5859285 L122.778631,10.5859285 L122.778631,12.2049117 C123.300673,11.6130224 123.940164,11.1604079 124.697124,10.8470548 C125.454084,10.5337016 126.284987,10.3770274 127.189859,10.3770274 C128.181738,10.3770274 129.077896,10.5728702 129.878359,10.9645616 C130.678823,11.3562531 131.322664,11.9263732 131.809903,12.674939 C132.384149,11.9437817 133.110646,11.3780136 133.989415,10.9776179 C134.868185,10.5772222 135.829597,10.3770274 136.87368,10.3770274 Z M153.344005,21.5793466 C154.074863,21.5793466 154.723055,21.470545 155.2886,21.2529387 C155.854144,21.0353323 156.380528,20.6915195 156.867767,20.2214897 L159.034228,22.5716266 C157.711723,24.0861668 155.780199,24.8434256 153.239597,24.8434256 C151.656071,24.8434256 150.255281,24.5344292 149.037184,23.9164272 C147.819088,23.2984251 146.879427,22.4410689 146.218175,21.3443329 C145.556922,20.2475969 145.226301,19.0029072 145.226301,17.6102265 C145.226301,16.2349543 145.552572,14.9946167 146.205124,13.8891764 C146.857676,12.7837361 147.753833,11.9220279 148.893624,11.3040258 C150.033414,10.6860238 151.316747,10.3770274 152.74366,10.3770274 C154.083567,10.3770274 155.301645,10.6599114 156.397932,11.225688 C157.494219,11.7914645 158.368626,12.6096521 159.021177,13.6802754 C159.673729,14.7508986 160,16.0173486 160,17.4796633 L149.611427,19.490336 C149.907251,20.1866764 150.372731,20.7089238 151.007881,21.0570939 C151.643032,21.4052641 152.421732,21.5793466 153.344005,21.5793466 Z M152.74366,13.458318 C151.716979,13.458318 150.881725,13.7890747 150.237874,14.450598 C149.594023,15.1121213 149.254701,16.0260543 149.219898,17.1924244 L156.058607,15.8606801 C155.867192,15.1295228 155.475666,14.5463465 154.88402,14.1111338 C154.292372,13.6759211 153.578926,13.458318 152.74366,13.458318 Z" id="boardme"></path>
                <path d="M25.7874848,30.4456094 L23.5333148,33.430213 C23.3326723,33.6958709 22.9547493,33.7485098 22.6892001,33.5477852 C22.6448463,33.5142589 22.6053429,33.4747544 22.5718135,33.4303951 L20.315732,30.4456094 L1.20527307,30.4456094 C0.539619134,30.4456094 0,29.9057693 0,29.2398427 L0,1.20576671 C0,0.539840144 0.539619134,8.34398809e-14 1.20527307,8.34398809e-14 L29.2278719,8.34398809e-14 C29.8935259,8.34398809e-14 30.433145,0.539840144 30.433145,1.20576671 L30.433145,29.2398427 C30.433145,29.9057693 29.8935259,30.4456094 29.2278719,30.4456094 L25.7874848,30.4456094 Z M10.2448211,23.7307375 C10.5035253,23.8810796 10.7740199,24.0158528 11.0563059,24.1350574 C11.9053862,24.49361 12.8120538,24.6728836 13.7763359,24.6728836 C14.7491515,24.6728836 15.6600858,24.4978784 16.5091661,24.1478628 C17.3582464,23.7978472 18.0985138,23.3048449 18.7299906,22.668841 C19.3614674,22.0328371 19.8606679,21.2709244 20.2276071,20.38308 C20.5945463,19.4952356 20.7780132,18.5134993 20.7780132,17.4378417 C20.7780132,16.387795 20.5945463,15.4209982 20.2276071,14.5374223 C19.8606679,13.6538464 19.3614674,12.8876653 18.7299906,12.2388559 C18.0985138,11.5900466 17.3582464,11.084239 16.5091661,10.721418 C15.6600858,10.3585969 14.7491515,10.1771892 13.7763359,10.1771892 C13.4605975,10.1771892 13.1363305,10.2092023 12.8035252,10.2732295 C12.4707198,10.3372568 12.1485862,10.4290278 11.8371145,10.5485453 C11.5256429,10.6680628 11.2355092,10.8217258 10.9667049,11.0095391 C10.6979006,11.1973523 10.4696337,11.4107732 10.2818974,11.6498083 L10.2818974,5.24711639 L10.2448211,5.24711639 L10.2448211,5.12450852 L6.62900188,5.12450852 L6.62900188,24.7182176 L10.2448211,24.7182176 L10.2448211,23.7307375 Z M17.2579743,17.4378417 C17.2579743,17.9671336 17.1662409,18.4580017 16.9827713,18.9104609 C16.7993017,19.36292 16.5497014,19.7556145 16.233963,20.0885562 C15.9182246,20.4214978 15.5491576,20.6840056 15.1267508,20.8760873 C14.704344,21.068169 14.2542103,21.1642084 13.7763359,21.1642084 C13.2984616,21.1642084 12.8483278,21.068169 12.425921,20.8760873 C12.0035142,20.6840056 11.6344472,20.4214978 11.3187088,20.0885562 C11.0029704,19.7556145 10.7555035,19.36292 10.5763006,18.9104609 C10.3970977,18.4580017 10.3074976,17.9671336 10.3074976,17.4378417 C10.3074976,16.9597717 10.3970977,16.4966483 10.5763006,16.0484576 C10.7555035,15.6002669 11.0029704,15.203304 11.3187088,14.8575569 C11.6344472,14.5118098 12.0035142,14.2343626 12.425921,14.025207 C12.8483278,13.8160513 13.2984616,13.711475 13.7763359,13.711475 C14.2542103,13.711475 14.704344,13.8053803 15.1267508,13.9931935 C15.5491576,14.1810067 15.9182246,14.4413803 16.233963,14.7743219 C16.5497014,15.1072635 16.7993017,15.5020923 16.9827713,15.9588199 C17.1662409,16.4155476 17.2579743,16.9085499 17.2579743,17.4378417 Z M22.2975518,25.6225426 C23.2960327,25.6225426 24.1054614,24.8127824 24.1054614,23.8138925 C24.1054614,22.8150027 23.2960327,22.0052425 22.2975518,22.0052425 C21.2990709,22.0052425 20.4896422,22.8150027 20.4896422,23.8138925 C20.4896422,24.8127824 21.2990709,25.6225426 22.2975518,25.6225426 Z" id="Combined-Shape"></path>
            </g>
        </g>
    </g>
</svg>