<?xml version="1.0" encoding="UTF-8"?>
<svg width="1600px" height="670px" viewBox="0 0 1600 670" version="1.1" xmlns="http://www.w3.org/2000/svg" xmlns:xlink="http://www.w3.org/1999/xlink">
    <title>Path 3</title>
    <g id="Symbols" stroke="none" stroke-width="1" fill="none" fill-rule="evenodd" opacity="0.281639462">
        <g id="Rectangle" transform="translate(0.000000, -100.000000)" stroke="#A4B3EF">
            <path d="M-203.936452,762.803338 C-194.747895,742.486175 -186.852015,721.533321 -176.37078,701.851849 C-87.6782635,535.306662 54.4296574,385.157265 216.388197,287.768148 C304.248141,234.936094 395.483253,203.482564 493.39624,172.710654 C671.69793,116.674335 870.667378,93.8520269 1056.26108,103.526802 C1135.74545,107.670226 1214.31837,122.70037 1292.95485,134.998254 C1403.3283,152.259453 1519.31906,201.647238 1603.43168,276.234543 C1643.54104,311.801726 1685.71871,356.940448 1696.89182,411.490664 C1717.01484,509.736847 1662.71499,648.488065 1595.88683,720.835476 C1561.48662,758.076761 1507.77174,802.273546 1471.64276,831.46563 C1440.45321,856.666672 1403.19018,880.324941 1363.3537,888.778048 C1297.64353,902.721425 1187.46649,897.171367 1126.83181,894.930094 C1064.64501,892.631449 1001.54229,881.241517 950.224217,843.864552 C861.844495,779.494137 871.350172,651.961213 912.162134,564.082753 C929.240353,527.309036 957.16329,497.198576 986.810521,470.272934 C1107.55993,360.608218 1203,291 1371,257.5 C1420.30082,247.669181 1507.23592,241.996271 1555.83333,246.410749 C1602.05298,250.609237 1650.14793,258.033038 1694.20697,273.371885 C1697.53875,274.531822 1700.50521,276.552616 1703.65433,278.142981" id="Path-3"></path>
        </g>
    </g>
</svg>