<?xml version="1.0" encoding="UTF-8"?>
<svg width="1600px" height="1171px" viewBox="0 0 1600 1171" version="1.1" xmlns="http://www.w3.org/2000/svg" xmlns:xlink="http://www.w3.org/1999/xlink">
    <title>Path 2</title>
    <g id="Main" stroke="none" stroke-width="1" fill="none" fill-rule="evenodd" opacity="0.5">
        <g id="Features" transform="translate(0.000000, -124.000000)" stroke="#2A2B66">
            <path d="M-39.6469005,1020.12147 C-10.5493512,944.534729 19.8058694,869.395769 58.7065688,798.173697 C83.0284466,753.643533 125.52105,692.896994 151.374725,655.857073 C192.185502,597.388479 251.424557,540.77322 299.787132,491.846812 C418.469453,371.78084 557.351691,272.478432 721.094578,225.225223 C856.274045,186.214896 1007.91011,199.700335 1127.88242,274.163028 C1183.50245,308.684472 1231.72116,349.861951 1259.98631,410.028537 C1291.45115,477.006151 1316.35725,576.657673 1306.49805,650.833412 C1301.31619,689.819191 1293.67039,722.074665 1283.37696,759.277087 C1252.46854,870.986024 1183.26384,967.543508 1080.11476,1023.7483 C987.234502,1074.35773 875.625034,1086.02745 771.551733,1072.59421 C686.383729,1061.60117 634.249301,1034.37063 569.723112,979.295035 C511.831494,929.882303 488.454815,865.575458 505.291603,790.466667 C512.945304,756.323563 531.349597,723.209196 551.533785,694.931349 C603.003659,622.822565 681.828829,590.207538 766.981428,576.360709 C924.327889,550.774296 1087.23041,587.683158 1195.81824,709.628619 C1219.87165,736.640897 1240.71599,765.974144 1254.87688,799.337716 C1276.40933,850.068963 1286.96744,901.613145 1292.51757,956.351611 C1301.51266,1045.06608 1298.71589,1150.97074 1360.90062,1223.78189 C1378.08558,1243.90349 1397.82007,1260.70779 1422.10963,1271.64144 C1444.91634,1281.9076 1469.31773,1292.2911 1494.70153,1293.50662 C1546.47,1295.98559 1585.86177,1270.52263 1625.5495,1239.73507 C1650.10396,1220.68708 1669.26808,1195.95808 1687.65297,1171.17436 C1737.78374,1103.59566 1755.17491,1037.90651 1752.09061,952.945324 C1750.99643,922.804697 1741.41509,885.211612 1734.52618,858.580151 C1701.47835,730.822418 1632.33561,643.579203 1539.60202,552.345162 C1369.1003,384.60053 1154.2703,254.096203 922.384075,192.24673 C815.082425,163.626874 708.78375,150.449065 597.775967,137.396935 C520.701496,128.334634 442.375614,122.168355 364.671996,127.000409 C265.100952,133.192304 159.063391,146.200126 69.1030953,193.055417 C30.8807146,212.96332 -6.03598388,244.86907 -35.3032721,276.582962 C-59.6765095,302.993684 -95.1712941,337.655919 -113.721386,371.401489 C-181.56645,494.822459 -203.279331,623.220788 -170.721553,759.638546" id="Path-2"></path>
        </g>
    </g>
</svg>