<?xml version="1.0" encoding="UTF-8"?>
<svg width="1600px" height="1130px" viewBox="0 0 1600 1130" version="1.1" xmlns="http://www.w3.org/2000/svg" xmlns:xlink="http://www.w3.org/1999/xlink">
    <title>Path 3</title>
    <g id="Main" stroke="none" stroke-width="1" fill="none" fill-rule="evenodd">
        <g id="Features" transform="translate(0.000000, -1587.000000)" fill-rule="nonzero" stroke="#D2DCFF">
            <g id="Group-10" transform="translate(-210.000000, 1491.000000)">
                <path d="M535.645171,793.758356 L1350.25878,1069.99898 L1347.67471,1071.2576 C1191.06501,1146.85455 1004.60915,1189.58793 844.736944,1205.95349 C763.806732,1214.23803 657.25718,1221.27693 573.790259,1223.27236 C524.760828,1224.4445 475.699121,1225.4105 426.664778,1224.46589 C327.956301,1222.56436 179.960793,1216.937 101.374392,1144.0567 C88.3804957,1132.00628 80.8197409,1118.89902 77.4264489,1105.25558 C73.6083103,1089.90395 75.0644327,1073.87894 79.9637216,1057.92931 C93.971844,1012.32589 136.091559,967.343296 164.18341,940.330444 C171.708924,933.093983 179.858257,926.510486 188.147176,920.1628 C284.223525,846.587159 407.516472,807.110753 533.350411,793.989523 L533.350411,793.989523 L535.645171,793.758356 Z M1416.96768,1035.55045 L1429.37882,1041.4556 C1460.80552,1056.39635 1492.26589,1071.26507 1523.84437,1085.88155 C1703.7065,1169.13291 1737.3114,1182.90677 1864.6842,1235.11402 C1896.08387,1247.98404 1933.18232,1263.18986 1979.57591,1282.34834 L1979.57591,1282.34834 L1352.88422,1069.83335 L1354.36279,1069.1143 C1375.15424,1058.90907 1395.40125,1048.11757 1414.97174,1036.72345 L1414.97174,1036.72345 L1416.96768,1035.55045 Z M918.599915,99.1311839 C1118.26921,88.4300625 1302.31264,129.990291 1472.46232,235.432886 C1518.21313,263.784889 1552.74799,299.887319 1586.60912,341.355289 C1641.97337,409.157006 1678.10994,483.275119 1691.51275,560.989672 C1704.35754,635.468636 1696.32036,713.248656 1664.3276,791.931975 C1631.88466,871.722488 1559.36316,933.921498 1492.21042,984.488635 C1469.60729,1001.50917 1445.54274,1017.47762 1420.31237,1032.42698 L1420.31237,1032.42698 L1416.91835,1034.41966 L1416.34231,1034.14584 C1408.28115,1030.30813 1400.22141,1026.46738 1392.16166,1022.62663 C1355.34638,1005.08286 1318.53101,987.539052 1281.57964,970.285329 C1265.78461,962.910146 1249.78214,955.975342 1233.68188,949.292693 C1228.15839,947.000089 1222.63832,944.705467 1217.12081,942.410851 L1217.12081,942.410851 L1208.84615,938.969091 L1200.57463,935.528825 C1073.73445,882.784406 947.780469,831.106949 812.145572,805.004131 C726.829334,788.585096 632.781213,783.327578 539.880391,792.32775 L539.880391,792.32775 L535.760892,792.741666 L14.8605375,616.101891 C32.311716,600.930619 39.858592,594.388671 41.4328289,593.024228 L41.4328289,593.024228 L40.7783448,592.268152 C38.9371935,593.859891 31.130538,600.606893 22.8084173,607.724219 L21.9307362,608.474572 L21.9307362,608.474572 L20.6101652,609.602518 C15.3234598,614.115451 10.0218393,618.608676 6.07834162,621.876714 L6.048,621.901 L6.19745746,621.76117 C16.5224368,612.076905 41.9393474,589.012104 93.3584609,542.98758 L95.1015529,541.427482 C270.346658,384.591949 517.735633,188.906014 751.074274,122.77276 C805.315788,107.399533 862.610512,102.131893 918.599915,99.1311839 Z" id="Path-3"></path>
            </g>
        </g>
    </g>
</svg>