<svg xmlns="http://www.w3.org/2000/svg" width="116" height="46" viewBox="0 0 116 46"><defs><style>.cls-1{fill:#ff5b52;fill-rule:evenodd}</style></defs><path id="startup-lab-logo.svg" class="cls-1" d="M195.67 187.2h-1.048v3.056h.845c2.588 0 4.1 1.326 4.1 3.746v.029c0 2.249-1.513 3.776-4.1 3.776h-.845v3.027h.845c4.217-.058 7.533-2.392 7.533-6.861v-.057c0-4.179-2.879-6.716-7.33-6.716zm-3.139 0h-3.376v20.176h3.374zM176 204.5c-1.972-.421-3.142-2.064-3.142-4.846V187.2h-3.374v12.48c0 4.871 2.554 7.577 6.516 7.964V204.5zm5.263-17.3v12.567c0 2.751-1.207 4.348-3.172 4.743v3.129c3.982-.4 6.517-3.091 6.517-8.074V187.2h-3.345zm-80.746 42.716h-8.688v-17.092h-3.373V233h10.937zM87 204.725a10.709 10.709 0 0 0 6.251 2.851V204.5a8.661 8.661 0 0 1-4.215-2.281zm13.671-15.425a9.436 9.436 0 0 0-5.33-2.3v3.1a8.462 8.462 0 0 1 3.411 1.772zm-5.235 6.515c-3.461-1.326-4.218-2.075-4.218-3.488v-.027a2.322 2.322 0 0 1 2.033-2.224v-3.071c-3.23.384-5.437 2.577-5.437 5.584v.058c0 3.228 2.008 4.64 5.876 6.081 3.229 1.183 3.9 2.018 3.9 3.286v.029a2.533 2.533 0 0 1-2.246 2.459v3.074c3.3-.36 5.621-2.531 5.621-5.764v-.057c-.003-2.939-1.748-4.496-5.529-5.936zm12.334-3.431v14.988h3.374v-14.984h-3.374zm-5.352-5.188v3.113H116.5V187.2h-14.082zm55.488 5.188v14.988h3.374v-14.984h-3.374zm-5.352-5.188v3.113h14.078V187.2h-14.078zm-8.918 3.056c2.531 0 4.014 1.181 4.014 3.458v.058c0 2.1-1.454 3.487-4.071 3.487H142.4v3h.8c4.684 0 7.854-2.491 7.854-6.6v-.114a6.092 6.092 0 0 0-1.687-4.44 7.58 7.58 0 0 0-5.44-1.9h-7.358v3.054zm4.394 11.248l-3.453.659 3.161 5.222h3.9zm-8.088 2.649v-11.817h-3.374v15.049h3.374v-3.232zm-11.894 11.678h1.626c2.181 0 3.432.979 3.432 2.68v.058c0 1.874-1.425 2.853-3.636 2.853h-1.422v2.826h1.162c4.3 0 7.271-1.611 7.271-6.2v-.086a4.584 4.584 0 0 0-1.368-3.4 7.343 7.343 0 0 0-5.206-1.729h-1.859v3zm-2.09-3h-3.323V233h3.323v-20.176zm-.658-13.175h-3.419l1.717-4.783-1.598-4.485-6.259 16.992h3.4l1.687-4.756h5.521zm1.176-12.567h-3.258v.006l7.217 20.285h3.519zm-15.307 38.19h-3.418l1.717-4.782-1.595-4.485L101.612 233h3.4l1.687-4.756h5.521zm1.177-12.567h-3.257v.006L116.3 233h3.519zm23.87 11.5l-2.874 1.139a2.516 2.516 0 0 1 .64 1.748v.058c0 1.843-1.455 2.852-3.781 2.852h-2.15v3h2.062c4.334 0 7.242-1.959 7.242-5.5v-.116a4.474 4.474 0 0 0-1.142-3.184z" transform="translate(-87 -187)"/></svg>