<?xml version="1.0" encoding="UTF-8"?>
<svg width="36px" height="36px" viewBox="0 0 36 36" version="1.1" xmlns="http://www.w3.org/2000/svg" xmlns:xlink="http://www.w3.org/1999/xlink">
    <title>ui-icon</title>
    <g id="Page-1" stroke="none" stroke-width="1" fill="none" fill-rule="evenodd">
        <g id="Home" transform="translate(-668.000000, -1181.000000)" fill="#BE63F9" fill-rule="nonzero">
            <g id="Group-3" transform="translate(-16.000000, 873.000000)">
                <g id="Group-2-Copy" transform="translate(683.000000, 308.000000)">
                    <g id="Group" transform="translate(1.000000, 0.000000)">
                        <path d="M21.6,0 L1.64925,0 C0.738,0 0,0.738 0,1.64925 L0,21.6 C0,22.51125 0.738,23.24925 1.64925,23.24925 L21.6,23.24925 C22.51125,23.24925 23.24925,22.51125 23.24925,21.6 L23.24925,1.64925 C23.24925,0.738 22.51125,0 21.6,0 Z" id="Path"></path>
                        <path d="M23.24925,25.49925 L1.64925,25.49925 C0.738,25.49925 -1.99840144e-15,26.2395 -1.99840144e-15,27.15075 L-1.99840144e-15,34.35075 C-1.99840144e-15,35.262 0.738,36 1.64925,36 L34.3485,36 C35.262,36 36,35.262 36,34.35075 L36,27.15075 C36,26.2395 35.262,25.5015 34.35075,25.5015 L25.5015,25.5015 L23.24925,25.5015 L23.24925,25.49925 Z" id="Path" opacity="0.2"></path>
                        <path d="M34.35075,0 L27.15075,0 C26.2395,0 25.5015,0.738 25.5015,1.64925 L25.5015,21.6 C25.5015,22.51125 26.2395,23.24925 27.15075,23.24925 L34.35075,23.24925 C35.262,23.24925 36,22.51125 36,21.6 L36,1.64925 C36,0.738 35.262,0 34.35075,0 Z" id="Path" opacity="0.5"></path>
                    </g>
                </g>
            </g>
        </g>
    </g>
</svg>